<?xml version="1.0" encoding="utf-8"?>
<!-- Generator: Adobe Illustrator 23.1.0, SVG Export Plug-In . SVG Version: 6.00 Build 0)  -->
<svg version="1.1" id="Capa_1" xmlns="http://www.w3.org/2000/svg" xmlns:xlink="http://www.w3.org/1999/xlink" x="0px" y="0px"
	 viewBox="0 0 1200 1200" enable-background="new 0 0 1200 1200" xml:space="preserve">
<g>
	<path fill="#37574F" d="M898.918,352.627c-15.298-23.266-28.645-49.541-42.776-77.357
		c-43.317-85.266-91.859-180.633-210.731-199.945C642.14,60.606,623.741,50,600,50c-24.008,0-42.56,10.844-45.521,25.823
		C448.647,95.547,402.145,184.086,360.577,263.342c-13.384,25.518-26.024,49.621-40.278,71.361
		C251.755,439.248,177.98,606.912,177.98,727.98C177.98,960.683,367.297,1150,600,1150s422.02-189.317,422.02-422.02
		C1022.02,611.781,958.121,442.671,898.918,352.627z M337.741,515.677c-1.394,0-2.815-0.28-4.178-0.87
		c-5.349-2.31-7.807-8.519-5.496-13.866c1.682-3.886,41.643-95.738,82.795-142.032c22.102-24.866,39.384-64.88,53.267-97.032
		c11.525-26.682,20.626-47.757,30.685-57.816c4.12-4.12,10.794-4.12,14.913,0c4.12,4.118,4.12,10.795,0,14.913
		c-7.206,7.209-16.448,28.609-26.232,51.266c-14.484,33.539-32.511,75.28-56.869,102.683
		c-38.924,43.787-78.799,135.47-79.197,136.392C345.706,513.295,341.823,515.677,337.741,515.677z M659.624,531.715
		c-1.404,5.651-7.113,9.084-12.778,7.692c-32.652-8.116-64.998-7.719-96.119,1.172c-82.139,23.468-106.099,77.714-107.077,80.012
		c-1.71,4.012-5.62,6.43-9.729,6.43c-1.359,0-2.743-0.266-4.078-0.827c-5.352-2.255-7.879-8.394-5.647-13.755
		c1.116-2.671,28.326-65.738,120.737-92.143c34.718-9.92,70.717-10.376,107.001-1.361
		C657.585,520.341,661.029,526.062,659.624,531.715z M716.019,559.138c-2.039,3.007-5.359,4.628-8.737,4.628
		c-2.036,0-4.096-0.59-5.912-1.82c-0.034-0.026-5.304-3.553-14.532-8.054c-5.235-2.554-7.409-8.868-4.854-14.103
		c2.554-5.234,8.864-7.407,14.103-4.854c10.704,5.222,16.87,9.381,17.128,9.554C718.034,547.759,719.291,554.318,716.019,559.138z"
		/>
	<path fill="#A6DE57" d="M600,92.836c-126.178,0-174.251,91.661-220.742,180.302c-13.629,25.987-26.503,50.533-41.32,73.131
		c-66.881,102.008-138.865,264.97-138.865,381.711c0,221.071,179.856,400.927,400.927,400.927s400.927-179.856,400.927-400.927
		c0-112.299-62.099-276.258-119.635-363.766c-15.943-24.249-29.55-51.034-43.957-79.391C789.388,190.436,739.806,92.836,600,92.836z
		 M979.309,719.911c0,104.639-38.634,201.949-108.787,274.004c-70.651,72.57-166.725,112.534-270.523,112.534
		s-199.872-39.964-270.523-112.534C259.324,921.86,220.691,824.55,220.691,719.911c0-124.51,85.277-287.795,135.667-364.647
		c14.805-22.581,27.391-48.665,39.563-73.891c39.398-81.648,80.136-166.077,204.08-166.077c136.922,0,179.212,90.373,220.11,177.772
		c13.255,28.33,25.777,55.087,41.425,78.888C918.177,458.102,979.309,615.63,979.309,719.911z"/>
	<path fill="#DBFF7A" d="M849.787,379.68c-16.207-24.648-29.529-53.118-42.414-80.653C768.34,215.612,727.976,129.357,600,129.357
		c-115.115,0-152.177,76.809-191.415,158.126c-12.368,25.633-25.157,52.139-40.469,75.491
		c-49.534,75.548-133.364,235.741-133.364,356.936c0,208.865,160.435,372.476,365.248,372.476s365.248-163.611,365.248-372.476
		C965.248,618.229,905.315,464.136,849.787,379.68z M337.741,515.677c-1.394,0-2.815-0.28-4.178-0.87
		c-5.349-2.31-7.807-8.519-5.496-13.866c1.682-3.886,41.643-95.738,82.795-142.032c22.102-24.866,39.384-64.88,53.267-97.032
		c11.525-26.682,20.626-47.757,30.685-57.816c4.12-4.12,10.794-4.12,14.913,0c4.12,4.118,4.12,10.795,0,14.913
		c-7.206,7.209-16.448,28.609-26.232,51.266c-14.484,33.539-32.511,75.28-56.869,102.683
		c-38.924,43.787-78.799,135.47-79.197,136.392C345.706,513.295,341.823,515.677,337.741,515.677z M600,977.184
		c-141.967,0-257.465-115.498-257.465-257.465S458.033,462.253,600,462.253s257.465,115.498,257.465,257.465
		S741.967,977.184,600,977.184z"/>
	<path fill="#ED8A5F" d="M600,476.315c-134.214,0-243.403,109.19-243.403,243.403S465.786,963.122,600,963.122
		s243.403-109.19,243.403-243.404S734.214,476.315,600,476.315z M459.382,760.77c-18.173,0-32.905-14.732-32.905-32.905
		c0-18.173,14.732-32.905,32.905-32.905c18.173,0,32.905,14.732,32.905,32.905C492.287,746.038,477.555,760.77,459.382,760.77z
		 M561.33,755.982c0.007-14.068,21.078-13.224,21.093,0.026c0.026,22.861,35.125,22.575,35.154-0.036
		c0.009-6.79,5.284-10.096,10.556-10.047c5.272,0.05,10.54,3.455,10.536,10.088C638.642,805.961,561.305,805.83,561.33,755.982z
		 M659.624,531.715c-1.404,5.651-7.113,9.084-12.778,7.692c-32.652-8.116-64.998-7.719-96.119,1.172
		c-82.139,23.468-106.099,77.714-107.077,80.012c-1.71,4.012-5.62,6.43-9.729,6.43c-1.359,0-2.743-0.266-4.078-0.827
		c-5.352-2.255-7.879-8.394-5.647-13.755c1.116-2.671,28.326-65.738,120.737-92.143c34.718-9.92,70.717-10.376,107.001-1.361
		C657.585,520.341,661.029,526.062,659.624,531.715z M701.37,561.946c-0.034-0.026-5.304-3.553-14.532-8.054
		c-5.235-2.554-7.409-8.868-4.854-14.103c2.554-5.234,8.864-7.407,14.103-4.854c10.704,5.222,16.87,9.381,17.128,9.554
		c4.82,3.27,6.077,9.829,2.805,14.649c-2.039,3.007-5.359,4.628-8.737,4.628C705.246,563.766,703.186,563.175,701.37,561.946z
		 M740.618,760.77c-18.173,0-32.905-14.732-32.905-32.905c0-18.173,14.732-32.905,32.905-32.905
		c18.173,0,32.905,14.732,32.905,32.905C773.522,746.038,758.791,760.77,740.618,760.77z"/>
</g>
</svg>
